<svg id="Capa_1" enable-background="new 0 0 510 510" height="512" viewBox="0 0 510 510" width="512" xmlns="http://www.w3.org/2000/svg" xmlns:xlink="http://www.w3.org/1999/xlink"><linearGradient id="SVGID_1_" gradientUnits="userSpaceOnUse" x1="197.561" x2="427.463" y1="173.345" y2="403.246"><stop offset="0" stop-color="#a0d4ff"/><stop offset="1" stop-color="#0593fc"/></linearGradient><linearGradient id="lg1"><stop offset="0" stop-color="#a2e62e"/><stop offset=".1231" stop-color="#97de30"/><stop offset=".3395" stop-color="#79cb36"/><stop offset=".6234" stop-color="#4aab3f"/><stop offset=".9609" stop-color="#09804c"/><stop offset="1" stop-color="#017b4e"/></linearGradient><linearGradient id="SVGID_2_" gradientUnits="userSpaceOnUse" x1="124.769" x2="367.6" xlink:href="#lg1" y1="225.412" y2="468.244"/><linearGradient id="SVGID_3_" gradientUnits="userSpaceOnUse" x1="324.624" x2="482.924" xlink:href="#lg1" y1="140.408" y2="298.707"/><linearGradient id="SVGID_4_" gradientUnits="userSpaceOnUse" x1="189.987" x2="235.683" xlink:href="#lg1" y1="232.693" y2="278.389"/><linearGradient id="SVGID_5_" gradientUnits="userSpaceOnUse" x1="336.01" x2="382.669" y1="334.307" y2="482.178"><stop offset="0" stop-color="#2740b0" stop-opacity="0"/><stop offset=".3153" stop-color="#243ba4" stop-opacity=".315"/><stop offset=".8855" stop-color="#1b2d84" stop-opacity=".886"/><stop offset="1" stop-color="#192a7d"/></linearGradient><linearGradient id="SVGID_6_" gradientUnits="userSpaceOnUse" x1="334.99" x2="122.99" y1="351.187" y2="290.52"><stop offset="0" stop-color="#2740b0" stop-opacity="0"/><stop offset=".2638" stop-color="#253da9" stop-opacity=".264"/><stop offset=".6642" stop-color="#1f3494" stop-opacity=".664"/><stop offset="1" stop-color="#192a7d"/></linearGradient><linearGradient id="SVGID_7_" gradientUnits="userSpaceOnUse" x1="62.383" x2="227.932" y1="255" y2="255"><stop offset="0" stop-color="#eaf6ff"/><stop offset="1" stop-color="#b3dafe"/></linearGradient><linearGradient id="SVGID_8_" gradientUnits="userSpaceOnUse" x1="142" x2="142" y1="436.621" y2="520.631"><stop offset="0" stop-color="#8ac9fe" stop-opacity="0"/><stop offset=".2672" stop-color="#7db6e1" stop-opacity=".267"/><stop offset=".8432" stop-color="#5d8798" stop-opacity=".843"/><stop offset="1" stop-color="#537983"/></linearGradient><linearGradient id="SVGID_9_" gradientUnits="userSpaceOnUse" x1="108.617" x2="172.289" y1="270.112" y2="270.112"><stop offset="0" stop-color="#fd4755"/><stop offset="1" stop-color="#d2024e"/></linearGradient><linearGradient id="SVGID_10_" gradientUnits="userSpaceOnUse" x1="141.994" x2="141.994" y1="417.122" y2="480.191"><stop offset="0" stop-color="#c00148" stop-opacity="0"/><stop offset="1" stop-color="#6d3326"/></linearGradient><linearGradient id="lg2"><stop offset="0" stop-color="#c5715a"/><stop offset="1" stop-color="#883f2e"/></linearGradient><linearGradient id="SVGID_11_" gradientTransform="matrix(0 1 -1 0 699.174 -3129.481)" gradientUnits="userSpaceOnUse" x1="3396.591" x2="3439.405" xlink:href="#lg2" y1="667.731" y2="667.731"/><linearGradient id="SVGID_12_" gradientTransform="matrix(0 1 -1 0 699.174 -3129.481)" gradientUnits="userSpaceOnUse" x1="3336.299" x2="3379.114" xlink:href="#lg2" y1="659.439" y2="659.439"/><linearGradient id="SVGID_13_" gradientTransform="matrix(0 1 -1 0 699.174 -3129.481)" gradientUnits="userSpaceOnUse" x1="3276.008" x2="3318.822" xlink:href="#lg2" y1="667.731" y2="667.731"/><linearGradient id="SVGID_14_" gradientTransform="matrix(0 1 -1 0 699.174 -3129.481)" gradientUnits="userSpaceOnUse" x1="3215.716" x2="3258.531" xlink:href="#lg2" y1="659.439" y2="659.439"/><linearGradient id="SVGID_15_" gradientTransform="matrix(0 1 -1 0 699.174 -3129.481)" gradientUnits="userSpaceOnUse" x1="3155.425" x2="3198.239" xlink:href="#lg2" y1="667.731" y2="667.731"/><g><g><path d="m508 301.739c0 9.501 1.276 18.833-.119 27.944-13.454 87.829-89.333 155.101-180.925 155.101-101.093 0-183.044-81.952-183.044-183.045 0-95.241 72.738-173.492 165.693-182.233 5.712-.537 11.5 1.188 17.352 1.188 101.091.001 181.043 79.953 181.043 181.045z" fill="url(#SVGID_1_)"/><path d="m227.696 418.69c-11.669 11.669-9.418 31.268 4.705 39.806 27.597 16.684 59.953 26.288 94.555 26.288 47.006 0 89.867-17.725 122.281-46.847 2.059-1.85 3.228-4.493 3.228-7.261 0-8.699-10.517-13.055-16.668-6.904-11.904 11.904-31.204 11.904-43.107 0-15.843-15.843-37.331-24.743-59.736-24.743h-18.841c-16.352 0-29.609-13.256-29.609-29.609v-1.732c0-7.853 3.119-15.384 8.672-20.936 11.563-11.563 11.563-30.31 0-41.873-16.385-16.385-42.95-16.385-59.335 0l-23.885 23.885c-9.967 9.967-9.967 26.127 0 36.094l17.74 17.74c9.967 9.965 9.967 26.125 0 36.092z" fill="url(#SVGID_2_)"/><path d="m371.859 239.68c16.436 0 24.666 19.871 13.045 31.493-8.176 8.176-8.176 21.432 0 29.609 8.176 8.176 21.432 8.176 29.609 0l6.639-6.639c6.591-6.591 17.277-6.591 23.868 0 8.904 8.904 13.906 20.981 13.906 33.573 0 13.518 10.959 24.477 24.477 24.477 11.937 0 22.188-8.6 24.136-20.377 1.529-9.241 2.365-18.716 2.454-28.369.932-101.941-80.764-184.572-182.709-184.751-7.001-.012-13.911.37-20.709 1.124-8.723.968-12.5 11.536-6.294 17.742 4.071 4.071 4.071 10.672 0 14.743-13.322 13.322-13.322 34.921 0 48.243l16.191 16.191c14.689 14.688 34.613 22.941 55.387 22.941z" fill="url(#SVGID_3_)"/><path d="m225.647 285.077c9.315-9.315 9.315-24.416 0-33.731l-6.54-6.54c-4.615-4.615-4.615-12.098 0-16.714 7.445-7.445 2.172-20.175-8.357-20.175-18.731 0-33.915 15.184-33.915 33.915 0 13.702 3.975 27.11 11.442 38.599l.506.779c8.265 12.715 26.141 14.59 36.864 3.867z" fill="url(#SVGID_4_)"/><path d="m510 301.739c0 101.091-81.954 183.045-183.044 183.045-4.96 0-9.877-.194-14.737-.589-80.331-6.396-146.048-64.661-163.656-141.289-3.044-13.229-4.652-27.012-4.652-41.167 0-9.095.66-18.032 1.945-26.768h362.198c1.286 8.737 1.946 17.674 1.946 26.768z" fill="url(#SVGID_5_)"/></g><path d="m459.29 428.21c-33.33 34.86-80.3 56.57-132.33 56.57-101.1 0-183.05-81.95-183.05-183.04 0-52.04 21.72-99.01 56.58-132.33z" fill="url(#SVGID_6_)"/><g><path d="m200.496 283.836v-225.339c0-32.307-26.19-58.497-58.497-58.497-32.307 0-58.497 26.19-58.497 58.497v225.335c0 7.155-3.345 13.941-9.129 18.153-28.769 20.95-47.449 54.916-47.374 93.246.123 62.485 50.881 113.886 113.36 114.757 64.264.895 116.64-50.93 116.64-114.989 0-38.111-18.543-71.887-47.095-92.811-5.869-4.299-9.408-11.077-9.408-18.352z" fill="url(#SVGID_7_)"/><path d="m27.227 402.123c3.678 59.329 52.966 107.027 113.132 107.866 61.863.862 112.701-47.134 116.414-107.866z" fill="url(#SVGID_8_)"/><path d="m164.498 295.105v-207.427c0-12.2-9.486-22.59-21.678-23.024-12.8-.455-23.319 9.786-23.319 22.484v207.968c0 12.408-6.728 23.778-17.496 29.944-23.908 13.692-40.13 39.274-40.58 68.694-.672 43.978 34.648 80.775 78.618 81.816 45.399 1.075 82.539-35.405 82.539-80.561 0-29.921-16.314-56.019-40.528-69.915-10.784-6.187-17.556-17.546-17.556-29.979z" fill="url(#SVGID_9_)"/><path d="m222.25 402.123h-160.511c3.593 40.178 37.159 72.463 78.304 73.438 42.984 1.018 78.542-31.636 82.207-73.438z" fill="url(#SVGID_10_)"/></g><g><g><path d="m0 280.924c0-8.514 6.902-15.415 15.415-15.415h32.055c8.514 0 15.415 6.902 15.415 15.415 0 8.514-6.902 15.415-15.415 15.415h-32.055c-8.513 0-15.415-6.902-15.415-15.415z" fill="url(#SVGID_11_)"/></g><g><path d="m16.585 220.632c0-8.514 6.902-15.415 15.415-15.415h15.47c8.514 0 15.415 6.902 15.415 15.415 0 8.514-6.902 15.415-15.415 15.415h-15.47c-8.514 0-15.415-6.901-15.415-15.415z" fill="url(#SVGID_12_)"/></g><g><path d="m0 160.341c0-8.514 6.902-15.415 15.415-15.415h32.055c8.514 0 15.415 6.902 15.415 15.415 0 8.514-6.902 15.415-15.415 15.415h-32.055c-8.513 0-15.415-6.902-15.415-15.415z" fill="url(#SVGID_13_)"/></g><g><path d="m16.585 100.049c0-8.514 6.902-15.415 15.415-15.415h15.47c8.514 0 15.415 6.902 15.415 15.415 0 8.514-6.902 15.415-15.415 15.415h-15.47c-8.514 0-15.415-6.901-15.415-15.415z" fill="url(#SVGID_14_)"/></g><g><path d="m0 39.758c0-8.514 6.902-15.415 15.415-15.415h32.055c8.514 0 15.415 6.902 15.415 15.415 0 8.514-6.902 15.415-15.415 15.415h-32.055c-8.513 0-15.415-6.902-15.415-15.415z" fill="url(#SVGID_15_)"/></g></g></g></svg>